<?xml version="1.0" encoding="UTF-8" standalone="no"?>
<!-- Created with Inkscape (http://www.inkscape.org/) -->

<svg
   xmlns:dc="http://purl.org/dc/elements/1.1/"
   xmlns:cc="http://creativecommons.org/ns#"
   xmlns:rdf="http://www.w3.org/1999/02/22-rdf-syntax-ns#"
   xmlns:svg="http://www.w3.org/2000/svg"
   xmlns="http://www.w3.org/2000/svg"
   xmlns:sodipodi="http://sodipodi.sourceforge.net/DTD/sodipodi-0.dtd"
   xmlns:inkscape="http://www.inkscape.org/namespaces/inkscape"
   width="2048"
   height="2048"
   id="svg2"
   version="1.1"
   inkscape:version="0.48.4 r9939"
   sodipodi:docname="particle.svg"
   inkscape:export-filename="C:\Users\Robert\Documents\amoebotsim\res\textures\particle.png"
   inkscape:export-xdpi="90"
   inkscape:export-ydpi="90">
  <defs
     id="defs4" />
  <sodipodi:namedview
     id="base"
     pagecolor="#ffffff"
     bordercolor="#666666"
     borderopacity="1.0"
     inkscape:pageopacity="0"
     inkscape:pageshadow="2"
     inkscape:zoom="0.35355339"
     inkscape:cx="630.23579"
     inkscape:cy="1068.6458"
     inkscape:document-units="px"
     inkscape:current-layer="layer1"
     showgrid="false"
     inkscape:object-nodes="true"
     units="px"
     inkscape:window-width="1680"
     inkscape:window-height="987"
     inkscape:window-x="-8"
     inkscape:window-y="-8"
     inkscape:window-maximized="1"
     inkscape:snap-object-midpoints="true" />
  <metadata
     id="metadata7">
    <rdf:RDF>
      <cc:Work
         rdf:about="">
        <dc:format>image/svg+xml</dc:format>
        <dc:type
           rdf:resource="http://purl.org/dc/dcmitype/StillImage" />
        <dc:title></dc:title>
      </cc:Work>
    </rdf:RDF>
  </metadata>
  <g
     inkscape:groupmode="layer"
     id="layer2"
     inkscape:label="Helper Grid"
     style="display:inline"
     transform="translate(0,1156)"
     sodipodi:insensitive="true">
    <rect
       style="fill:#ff0000;fill-opacity:1;stroke:none"
       id="rect3775"
       width="512"
       height="512"
       x="0"
       y="380" />
    <rect
       style="fill:#00ff00;fill-opacity:1;stroke:none;display:inline"
       id="rect3775-7"
       width="512"
       height="512"
       x="512"
       y="380" />
    <rect
       style="fill:#ff0000;fill-opacity:1;stroke:none;display:inline"
       id="rect3775-4"
       width="512"
       height="512"
       x="512"
       y="-132" />
    <rect
       style="fill:#ff0000;fill-opacity:1;stroke:none;display:inline"
       id="rect3775-0"
       width="512"
       height="512"
       x="1024"
       y="380" />
    <rect
       style="fill:#00ff00;fill-opacity:1;stroke:none;display:inline"
       id="rect3775-7-9"
       width="512"
       height="512"
       x="1024"
       y="-132" />
    <rect
       style="fill:#00ff00;fill-opacity:1;stroke:none;display:inline"
       id="rect3775-7-4"
       width="512"
       height="512"
       x="0"
       y="-132" />
    <rect
       style="fill:#ff0000;fill-opacity:1;stroke:none;display:inline"
       id="rect3775-8"
       width="512"
       height="512"
       x="0"
       y="-644" />
    <rect
       style="fill:#00ff00;fill-opacity:1;stroke:none;display:inline"
       id="rect3775-7-8"
       width="512"
       height="512"
       x="512"
       y="-644" />
    <rect
       style="fill:#ff0000;fill-opacity:1;stroke:none;display:inline"
       id="rect3775-0-2"
       width="512"
       height="512"
       x="1024"
       y="-644" />
    <rect
       style="fill:#ff0000;fill-opacity:1;stroke:none;display:inline"
       id="rect3775-8-2"
       width="512"
       height="512"
       x="512"
       y="-1156" />
    <rect
       style="fill:#00ff00;fill-opacity:1;stroke:none;display:inline"
       id="rect3775-7-8-1"
       width="512"
       height="512"
       x="0"
       y="-1156" />
    <rect
       style="fill:#00ff00;fill-opacity:1;stroke:none;display:inline"
       id="rect3775-7-8-6"
       width="512"
       height="512"
       x="1024"
       y="-1156" />
    <rect
       style="fill:#00ff00;fill-opacity:1;stroke:none;display:inline"
       id="rect3775-7-8-8"
       width="512"
       height="512"
       x="1536"
       y="-644" />
    <rect
       style="fill:#00ff00;fill-opacity:1;stroke:none;display:inline"
       id="rect3775-7-8-5"
       width="512"
       height="512"
       x="1536"
       y="380" />
    <rect
       style="fill:#ff0000;fill-opacity:1;stroke:none;display:inline"
       id="rect3775-0-7"
       width="512"
       height="512"
       x="1536"
       y="-132" />
    <rect
       style="fill:#ff0000;fill-opacity:1;stroke:none;display:inline"
       id="rect3775-0-6"
       width="512"
       height="512"
       x="1536"
       y="-1156" />
  </g>
  <g
     inkscape:label="Texture"
     inkscape:groupmode="layer"
     id="layer1"
     transform="translate(0,995.6378)"
     sodipodi:insensitive="true">
    <path
       sodipodi:type="arc"
       style="fill:#ffffff;fill-opacity:1;stroke:none"
       id="path3876"
       sodipodi:cx="-265.71747"
       sodipodi:cy="1154.2728"
       sodipodi:rx="88.940773"
       sodipodi:ry="88.940773"
       d="m -176.7767,1154.2728 a 88.940773,88.940773 0 1 1 -177.88154,0 88.940773,88.940773 0 1 1 177.88154,0 z"
       transform="matrix(0.35978999,0,0,0.35978999,351.60249,381.06639)" />
    <path
       sodipodi:type="arc"
       style="fill:#ffffff;fill-opacity:1;stroke:none"
       id="path3876-7"
       sodipodi:cx="-265.71747"
       sodipodi:cy="1154.2728"
       sodipodi:rx="88.940773"
       sodipodi:ry="88.940773"
       d="m -176.7767,1154.2728 a 88.940773,88.940773 0 1 1 -177.88154,0 88.940773,88.940773 0 1 1 177.88154,0 z"
       transform="matrix(0.35978999,0,0,0.35978999,863.60249,381.06639)" />
    <path
       style="fill:none;stroke:#ffffff;stroke-width:20;stroke-linecap:butt;stroke-linejoin:miter;stroke-miterlimit:4;stroke-opacity:1;stroke-dasharray:none"
       d="M 987.99991,796.3622 768,796.3622"
       id="path3047-5-1-7-1-4"
       inkscape:connector-curvature="0" />
    <path
       sodipodi:type="arc"
       style="fill:#ffffff;fill-opacity:1;stroke:none"
       id="path3876-1-0"
       sodipodi:cx="-265.71747"
       sodipodi:cy="1154.2728"
       sodipodi:rx="88.940773"
       sodipodi:ry="88.940773"
       d="m -176.7767,1154.2728 a 88.940773,88.940773 0 1 1 -177.88154,0 88.940773,88.940773 0 1 1 177.88154,0 z"
       transform="matrix(0.35978999,0,0,0.35978999,1083.6024,381.06639)" />
    <path
       sodipodi:type="arc"
       style="fill:#ffffff;fill-opacity:1;stroke:none"
       id="path3876-7-9"
       sodipodi:cx="-265.71747"
       sodipodi:cy="1154.2728"
       sodipodi:rx="88.940773"
       sodipodi:ry="88.940773"
       d="m -176.7767,1154.2728 a 88.940773,88.940773 0 1 1 -177.88154,0 88.940773,88.940773 0 1 1 177.88154,0 z"
       transform="matrix(0.35978999,0,0,0.35978999,1375.6025,381.06639)" />
    <path
       style="fill:none;stroke:#ffffff;stroke-width:20;stroke-linecap:butt;stroke-linejoin:miter;stroke-miterlimit:4;stroke-opacity:1;stroke-dasharray:none"
       d="M 1389.9999,605.83673 1280,796.3622"
       id="path3047-5-1-7-1-4-4"
       inkscape:connector-curvature="0" />
    <path
       sodipodi:type="arc"
       style="fill:#ffffff;fill-opacity:1;stroke:none"
       id="path3876-1-0-8"
       sodipodi:cx="-265.71747"
       sodipodi:cy="1154.2728"
       sodipodi:rx="88.940773"
       sodipodi:ry="88.940773"
       d="m -176.7767,1154.2728 a 88.940773,88.940773 0 1 1 -177.88154,0 88.940773,88.940773 0 1 1 177.88154,0 z"
       transform="matrix(0.35978999,0,0,0.35978999,1485.6024,190.54092)" />
    <path
       sodipodi:type="arc"
       style="fill:#ffffff;fill-opacity:1;stroke:none"
       id="path3876-7-8"
       sodipodi:cx="-265.71747"
       sodipodi:cy="1154.2728"
       sodipodi:rx="88.940773"
       sodipodi:ry="88.940773"
       d="m -176.7767,1154.2728 a 88.940773,88.940773 0 1 1 -177.88154,0 88.940773,88.940773 0 1 1 177.88154,0 z"
       transform="matrix(0.35978999,0,0,0.35978999,1887.6025,381.06639)" />
    <path
       style="fill:none;stroke:#ffffff;stroke-width:20;stroke-linecap:butt;stroke-linejoin:miter;stroke-miterlimit:4;stroke-opacity:1;stroke-dasharray:none"
       d="M 1682,605.83669 1792,796.3622"
       id="path3047-5-1-7-1-4-2"
       inkscape:connector-curvature="0" />
    <path
       sodipodi:type="arc"
       style="fill:#ffffff;fill-opacity:1;stroke:none"
       id="path3876-1-0-4"
       sodipodi:cx="-265.71747"
       sodipodi:cy="1154.2728"
       sodipodi:rx="88.940773"
       sodipodi:ry="88.940773"
       d="m -176.7767,1154.2728 a 88.940773,88.940773 0 1 1 -177.88154,0 88.940773,88.940773 0 1 1 177.88154,0 z"
       transform="matrix(0.35978999,0,0,0.35978999,1777.6025,190.54088)" />
    <path
       sodipodi:type="arc"
       style="fill:#ffffff;fill-opacity:1;stroke:none"
       id="path3876-7-5"
       sodipodi:cx="-265.71747"
       sodipodi:cy="1154.2728"
       sodipodi:rx="88.940773"
       sodipodi:ry="88.940773"
       d="m -176.7767,1154.2728 a 88.940773,88.940773 0 1 1 -177.88154,0 88.940773,88.940773 0 1 1 177.88154,0 z"
       transform="matrix(-0.35978999,0,0,-0.35978999,160.39751,699.65801)" />
    <path
       style="fill:none;stroke:#ffffff;stroke-width:20;stroke-linecap:butt;stroke-linejoin:miter;stroke-miterlimit:4;stroke-opacity:1;stroke-dasharray:none"
       d="M 36.000075,284.36219 256,284.3622"
       id="path3047-5-1-7-1-4-5"
       inkscape:connector-curvature="0" />
    <path
       sodipodi:type="arc"
       style="fill:#ffffff;fill-opacity:1;stroke:none"
       id="path3876-1-0-1"
       sodipodi:cx="-265.71747"
       sodipodi:cy="1154.2728"
       sodipodi:rx="88.940773"
       sodipodi:ry="88.940773"
       d="m -176.7767,1154.2728 a 88.940773,88.940773 0 1 1 -177.88154,0 88.940773,88.940773 0 1 1 177.88154,0 z"
       transform="matrix(-0.35978999,0,0,-0.35978999,-59.60241,699.658)" />
    <path
       style="fill:none;stroke:#ffffff;stroke-width:20;stroke-linecap:butt;stroke-linejoin:miter;stroke-miterlimit:4;stroke-opacity:1;stroke-dasharray:none"
       d="M 768,284.3622 658.0001,474.8877"
       id="path3047-5-1-7-1-4-1"
       inkscape:connector-curvature="0" />
    <path
       style="fill:none;stroke:#ffffff;stroke-width:20;stroke-linecap:butt;stroke-linejoin:miter;stroke-miterlimit:4;stroke-opacity:1;stroke-dasharray:none"
       d="m 1280,284.3622 110,190.52552"
       id="path3047-5-1-7-1-4-7"
       inkscape:connector-curvature="0" />
    <path
       sodipodi:type="arc"
       style="fill:#ffffff;fill-opacity:1;stroke:none"
       id="path3876-1-0-8-0"
       sodipodi:cx="-265.71747"
       sodipodi:cy="1154.2728"
       sodipodi:rx="88.940773"
       sodipodi:ry="88.940773"
       d="m -176.7767,1154.2728 a 88.940773,88.940773 0 1 1 -177.88154,0 88.940773,88.940773 0 1 1 177.88154,0 z"
       transform="matrix(0.35978999,0,0,0.35978999,863.60249,-130.93361)" />
    <path
       sodipodi:type="arc"
       style="fill:#ffffff;fill-opacity:1;stroke:none"
       id="path3876-1-0-8-9"
       sodipodi:cx="-265.71747"
       sodipodi:cy="1154.2728"
       sodipodi:rx="88.940773"
       sodipodi:ry="88.940773"
       d="m -176.7767,1154.2728 a 88.940773,88.940773 0 1 1 -177.88154,0 88.940773,88.940773 0 1 1 177.88154,0 z"
       transform="matrix(0.35978999,0,0,0.35978999,753.60259,59.591891)" />
    <path
       sodipodi:type="arc"
       style="fill:#ffffff;fill-opacity:1;stroke:none"
       id="path3876-1-0-8-00"
       sodipodi:cx="-265.71747"
       sodipodi:cy="1154.2728"
       sodipodi:rx="88.940773"
       sodipodi:ry="88.940773"
       d="m -176.7767,1154.2728 a 88.940773,88.940773 0 1 1 -177.88154,0 88.940773,88.940773 0 1 1 177.88154,0 z"
       transform="matrix(0.35978999,0,0,0.35978999,1375.6025,-130.93361)" />
    <path
       sodipodi:type="arc"
       style="fill:#ffffff;fill-opacity:1;stroke:none"
       id="path3876-1-0-8-6"
       sodipodi:cx="-265.71747"
       sodipodi:cy="1154.2728"
       sodipodi:rx="88.940773"
       sodipodi:ry="88.940773"
       d="m -176.7767,1154.2728 a 88.940773,88.940773 0 1 1 -177.88154,0 88.940773,88.940773 0 1 1 177.88154,0 z"
       transform="matrix(0.35978999,0,0,0.35978999,1485.6025,59.591911)" />
    <path
       style="fill:#ffffff;stroke:none"
       d="m 1792,222.3622 c -34.2417,0 -62,27.75836 -62,62 0,34.2417 27.7583,62 62,62 34.2417,0 62,-27.7583 62,-62 0,-34.24164 -27.7583,-62 -62,-62 z m 0,20 c 23.196,0 42,18.80405 42,42 0,23.19598 -18.804,42 -42,42 -23.196,0 -42,-18.80402 -42,-42 0,-23.19595 18.804,-42 42,-42 z"
       id="path3876-1-0-8-6-7"
       inkscape:connector-curvature="0" />
    <path
       style="fill:none;stroke:#ffffff;stroke-width:20;stroke-linecap:butt;stroke-miterlimit:4;display:inline"
       d="m 331.55597,-259.55592 c 4.1494,9.81035 6.44394,20.59626 6.44394,31.91811 0,11.32186 -2.29454,22.10777 -6.44394,31.9181"
       id="path4062"
       inkscape:connector-curvature="0"
       sodipodi:nodetypes="csc" />
    <path
       style="fill:none;stroke:#ffffff;stroke-width:20;stroke-linecap:butt;stroke-miterlimit:4;display:inline"
       d="m 778.13607,-309.03025 c 10.57071,1.31169 21.05885,4.71752 30.86386,10.37844 9.80502,5.66093 17.99863,13.04102 24.41992,21.53967"
       id="path4062-9"
       inkscape:connector-curvature="0"
       sodipodi:nodetypes="csc" />
    <path
       style="fill:none;stroke:#ffffff;stroke-width:20;stroke-linecap:butt;stroke-miterlimit:4;display:inline"
       d="m 1214.5801,-277.11211 c 6.4214,-8.49865 14.615,-15.87878 24.42,-21.5397 9.805,-5.66092 20.2931,-9.06674 30.8638,-10.37842"
       id="path4062-9-7"
       inkscape:connector-curvature="0"
       sodipodi:nodetypes="csc" />
    <path
       style="fill:none;stroke:#ffffff;stroke-width:20;stroke-linecap:butt;stroke-miterlimit:4;display:inline"
       d="m 1716.444,-195.71961 c -4.1494,-9.81042 -6.444,-20.59635 -6.444,-31.9182 0,-11.32184 2.2946,-22.1077 6.444,-31.91804"
       id="path4062-9-5"
       inkscape:connector-curvature="0"
       sodipodi:nodetypes="csc" />
    <path
       style="fill:none;stroke:#ffffff;stroke-width:20;stroke-linecap:butt;stroke-miterlimit:4;display:inline"
       d="m 245.86393,-658.24535 c -10.57071,-1.31169 -21.05885,-4.71752 -30.86386,-10.37844 -9.80502,-5.66093 -17.99863,-13.04102 -24.41992,-21.53966"
       id="path4062-9-3"
       inkscape:connector-curvature="0"
       sodipodi:nodetypes="csc" />
    <path
       style="fill:none;stroke:#ffffff;stroke-width:20;stroke-linecap:butt;stroke-miterlimit:4;display:inline"
       d="m 833.41989,-690.16348 c -6.42132,8.49866 -14.61492,15.87874 -24.41993,21.53966 -9.80502,5.66094 -20.29317,9.06677 -30.86385,10.37845"
       id="path4062-9-3-2"
       inkscape:connector-curvature="0"
       sodipodi:nodetypes="csc" />
    <path
       transform="translate(0,-483.6378)"
       inkscape:connector-curvature="0"
       style="fill:#ffffff;stroke:none;display:inline"
       d="m 256,194 c -34.2416,0 -62,27.75836 -62,62 0,34.2417 27.7584,62 62,62 34.2417,0 62,-27.7583 62,-62 0,-34.24164 -27.7583,-62 -62,-62 z m 0,20 c 23.196,0 42,18.80405 42,42 0,23.19598 -18.804,42 -42,42 -23.1959,0 -42,-18.80402 -42,-42 0,-23.19595 18.8041,-42 42,-42 z"
       id="path3876-1-0-8-6-7-1" />
    <path
       inkscape:connector-curvature="0"
       style="fill:#ffffff;stroke:none;display:inline"
       d="m 714.30641,-258.6378 c -17.1208,29.6541 -6.96055,67.57276 22.69358,84.69358 29.65418,17.12085 67.57277,6.96052 84.69357,-22.69358 17.12085,-29.65418 6.96061,-67.57272 -22.69357,-84.69357 -29.65413,-17.12082 -67.57273,-6.96061 -84.69358,22.69357 z m 17.32051,10 c 11.598,-20.08832 37.28479,-26.97104 57.37307,-15.37307 20.08831,11.59799 26.97107,37.28475 15.37307,57.37307 -11.59795,20.08824 -37.28476,26.97106 -57.37307,15.37307 -20.08828,-11.59798 -26.97102,-37.28483 -15.37307,-57.37307 z"
       id="path3876-1-0-8-6-7-1-8" />
    <path
       inkscape:connector-curvature="0"
       style="fill:#ffffff;stroke:none;display:inline"
       d="m 1226.3065,-196.63783 c 17.1208,29.6541 55.0394,39.81444 84.6935,22.69364 29.6542,-17.12086 39.8144,-55.0395 22.6936,-84.6936 -17.1208,-29.65422 -55.0394,-39.81441 -84.6936,-22.69355 -29.6541,17.1208 -39.8144,55.03937 -22.6935,84.69351 z m 17.3205,-9.99999 c -11.598,-20.08833 -4.7152,-45.77511 15.373,-57.37301 20.0884,-11.59807 45.7751,-4.71529 57.3731,15.37304 11.598,20.08819 4.7153,45.77502 -15.3731,57.37309 -20.0882,11.5979 -45.7751,4.71516 -57.373,-15.37312 z"
       id="path3876-1-0-8-6-7-1-8-2" />
    <path
       inkscape:connector-curvature="0"
       style="fill:#ffffff;stroke:none;display:inline"
       d="m 1791.9999,-165.63783 c 34.2416,1e-5 62.0001,-27.75829 62.0001,-61.9999 0,-34.24172 -27.7584,-62.00003 -62,-62.00003 -34.2418,-7e-5 -62,27.75831 -62,62.00003 0,34.24161 27.7583,61.99997 61.9999,61.9999 z m 0,-19.99998 c -23.196,-1e-5 -42,-18.80408 -41.9999,-41.99992 -10e-5,-23.19611 18.804,-42.00004 42,-42.00004 23.1958,-7e-5 41.9999,18.80394 42,42.00004 -10e-5,23.19584 -18.8041,41.99998 -42.0001,41.99992 z"
       id="path3876-1-0-8-6-7-1-8-9" />
    <path
       inkscape:connector-curvature="0"
       style="fill:#ffffff;stroke:none;display:inline"
       d="m 309.69359,-708.6378 c 17.1208,-29.65411 6.96056,-67.57276 -22.69357,-84.69358 -29.65419,-17.12084 -67.57278,-6.96053 -84.69358,22.69358 -17.12085,29.65418 -6.96061,67.57273 22.69358,84.69357 29.65413,17.12082 67.57272,6.96061 84.69357,-22.69357 z m -17.32051,-10 c -11.598,20.08831 -37.28478,26.97104 -57.37306,15.37307 -20.08832,-11.598 -26.97108,-37.28475 -15.37308,-57.37307 11.59795,-20.08824 37.28477,-26.97106 57.37308,-15.37306 20.08827,11.59797 26.97101,37.28482 15.37306,57.37306 z"
       id="path3876-1-0-8-6-7-1-8-4" />
    <path
       inkscape:connector-curvature="0"
       style="fill:#ffffff;stroke:none;display:inline"
       d="M 821.69358,-770.63781 C 804.57276,-800.29192 766.65414,-810.45221 737,-793.3314 c -29.65421,17.12085 -39.81439,55.03948 -22.69357,84.69359 17.12085,29.65418 55.0394,39.81443 84.69357,22.69356 29.65413,-17.12082 39.81442,-55.03938 22.69358,-84.69356 z m -17.32051,10 c 11.59798,20.08831 4.71521,45.77508 -15.37306,57.37306 -20.08832,11.598 -45.77509,4.71527 -57.37307,-15.37305 -11.59795,-20.08824 -4.71524,-45.77509 15.37308,-57.37308 20.08827,-11.59796 45.7751,-4.71517 57.37305,15.37307 z"
       id="path3876-1-0-8-6-7-1-8-4-1" />
    <path
       inkscape:connector-curvature="0"
       style="fill:#ffffff;stroke:none;display:inline"
       d="m 1333.6936,-770.6378 c -17.1208,-29.65411 -55.0395,-39.81445 -84.6936,-22.69359 -29.6542,17.12085 -39.8144,55.03948 -22.6936,84.69359 17.1209,29.65418 55.0394,39.81443 84.6936,22.69356 29.6541,-17.12082 39.8144,-55.03938 22.6936,-84.69356 z"
       id="path3876-1-0-8-6-7-1-8-4-1-1"
       sodipodi:nodetypes="sssss" />
  </g>
</svg>
