<?xml version="1.0" encoding="UTF-8" standalone="no"?>
<!-- Created with Inkscape (http://www.inkscape.org/) -->

<svg
   xmlns:dc="http://purl.org/dc/elements/1.1/"
   xmlns:cc="http://creativecommons.org/ns#"
   xmlns:rdf="http://www.w3.org/1999/02/22-rdf-syntax-ns#"
   xmlns:svg="http://www.w3.org/2000/svg"
   xmlns="http://www.w3.org/2000/svg"
   xmlns:sodipodi="http://sodipodi.sourceforge.net/DTD/sodipodi-0.dtd"
   xmlns:inkscape="http://www.inkscape.org/namespaces/inkscape"
   width="1536"
   height="1536"
   id="svg2"
   version="1.1"
   inkscape:version="0.48.4 r9939"
   sodipodi:docname="particle.svg"
   inkscape:export-filename="C:\Users\Robert\Documents\amoebotsim\res\textures\particle.png"
   inkscape:export-xdpi="90"
   inkscape:export-ydpi="90">
  <defs
     id="defs4" />
  <sodipodi:namedview
     id="base"
     pagecolor="#ffffff"
     bordercolor="#666666"
     borderopacity="1.0"
     inkscape:pageopacity="0"
     inkscape:pageshadow="2"
     inkscape:zoom="0.70710678"
     inkscape:cx="572.62358"
     inkscape:cy="1226.1812"
     inkscape:document-units="px"
     inkscape:current-layer="layer1"
     showgrid="false"
     inkscape:object-nodes="true"
     units="px"
     inkscape:window-width="1680"
     inkscape:window-height="987"
     inkscape:window-x="-8"
     inkscape:window-y="-8"
     inkscape:window-maximized="1"
     inkscape:snap-object-midpoints="true" />
  <metadata
     id="metadata7">
    <rdf:RDF>
      <cc:Work
         rdf:about="">
        <dc:format>image/svg+xml</dc:format>
        <dc:type
           rdf:resource="http://purl.org/dc/dcmitype/StillImage" />
        <dc:title></dc:title>
      </cc:Work>
    </rdf:RDF>
  </metadata>
  <g
     inkscape:groupmode="layer"
     id="layer2"
     inkscape:label="Helper Grid"
     style="display:inline"
     transform="translate(0,644)"
     sodipodi:insensitive="true">
    <rect
       style="fill:#ff0000;fill-opacity:1;stroke:none"
       id="rect3775"
       width="512"
       height="512"
       x="0"
       y="380" />
    <rect
       style="fill:#00ff00;fill-opacity:1;stroke:none;display:inline"
       id="rect3775-7"
       width="512"
       height="512"
       x="512"
       y="380" />
    <rect
       style="fill:#ff0000;fill-opacity:1;stroke:none;display:inline"
       id="rect3775-4"
       width="512"
       height="512"
       x="512"
       y="-132" />
    <rect
       style="fill:#ff0000;fill-opacity:1;stroke:none;display:inline"
       id="rect3775-0"
       width="512"
       height="512"
       x="1024"
       y="380" />
    <rect
       style="fill:#00ff00;fill-opacity:1;stroke:none;display:inline"
       id="rect3775-7-9"
       width="512"
       height="512"
       x="1024"
       y="-132" />
    <rect
       style="fill:#00ff00;fill-opacity:1;stroke:none;display:inline"
       id="rect3775-7-4"
       width="512"
       height="512"
       x="0"
       y="-132" />
    <rect
       style="fill:#ff0000;fill-opacity:1;stroke:none;display:inline"
       id="rect3775-8"
       width="512"
       height="512"
       x="0"
       y="-644" />
    <rect
       style="fill:#00ff00;fill-opacity:1;stroke:none;display:inline"
       id="rect3775-7-8"
       width="512"
       height="512"
       x="512"
       y="-644" />
    <rect
       style="fill:#ff0000;fill-opacity:1;stroke:none;display:inline"
       id="rect3775-0-2"
       width="512"
       height="512"
       x="1024"
       y="-644" />
  </g>
  <g
     inkscape:label="Texture"
     inkscape:groupmode="layer"
     id="layer1"
     transform="translate(0,483.6378)">
    <path
       sodipodi:type="arc"
       style="fill:#ffffff;fill-opacity:1;stroke:none"
       id="path3876"
       sodipodi:cx="-265.71747"
       sodipodi:cy="1154.2728"
       sodipodi:rx="88.940773"
       sodipodi:ry="88.940773"
       d="m -176.7767,1154.2728 c 0,49.1207 -39.82014,88.9408 -88.94077,88.9408 -49.12063,0 -88.94077,-39.8201 -88.94077,-88.9408 0,-49.1206 39.82014,-88.9407 88.94077,-88.9407 49.12063,0 88.94077,39.8201 88.94077,88.9407 z"
       transform="matrix(0.35978999,0,0,0.35978999,351.60249,381.06639)" />
    <path
       sodipodi:type="arc"
       style="fill:#ffffff;fill-opacity:1;stroke:none"
       id="path3876-7"
       sodipodi:cx="-265.71747"
       sodipodi:cy="1154.2728"
       sodipodi:rx="88.940773"
       sodipodi:ry="88.940773"
       d="m -176.7767,1154.2728 c 0,49.1207 -39.82014,88.9408 -88.94077,88.9408 -49.12063,0 -88.94077,-39.8201 -88.94077,-88.9408 0,-49.1206 39.82014,-88.9407 88.94077,-88.9407 49.12063,0 88.94077,39.8201 88.94077,88.9407 z"
       transform="matrix(0.35978999,0,0,0.35978999,863.60249,381.06639)" />
    <path
       style="fill:none;stroke:#ffffff;stroke-width:20;stroke-linecap:butt;stroke-linejoin:miter;stroke-miterlimit:4;stroke-opacity:1;stroke-dasharray:none"
       d="M 987.99991,796.3622 768,796.3622"
       id="path3047-5-1-7-1-4"
       inkscape:connector-curvature="0" />
    <path
       sodipodi:type="arc"
       style="fill:#ffffff;fill-opacity:1;stroke:none"
       id="path3876-1-0"
       sodipodi:cx="-265.71747"
       sodipodi:cy="1154.2728"
       sodipodi:rx="88.940773"
       sodipodi:ry="88.940773"
       d="m -176.7767,1154.2728 c 0,49.1207 -39.82014,88.9408 -88.94077,88.9408 -49.12063,0 -88.94077,-39.8201 -88.94077,-88.9408 0,-49.1206 39.82014,-88.9407 88.94077,-88.9407 49.12063,0 88.94077,39.8201 88.94077,88.9407 z"
       transform="matrix(0.35978999,0,0,0.35978999,1083.6024,381.06639)" />
    <path
       sodipodi:type="arc"
       style="fill:#ffffff;fill-opacity:1;stroke:none"
       id="path3876-7-9"
       sodipodi:cx="-265.71747"
       sodipodi:cy="1154.2728"
       sodipodi:rx="88.940773"
       sodipodi:ry="88.940773"
       d="m -176.7767,1154.2728 c 0,49.1207 -39.82014,88.9408 -88.94077,88.9408 -49.12063,0 -88.94077,-39.8201 -88.94077,-88.9408 0,-49.1206 39.82014,-88.9407 88.94077,-88.9407 49.12063,0 88.94077,39.8201 88.94077,88.9407 z"
       transform="matrix(0.35978999,0,0,0.35978999,1375.6025,381.06639)" />
    <path
       style="fill:none;stroke:#ffffff;stroke-width:20;stroke-linecap:butt;stroke-linejoin:miter;stroke-miterlimit:4;stroke-opacity:1;stroke-dasharray:none"
       d="M 1389.9999,605.83673 1280,796.3622"
       id="path3047-5-1-7-1-4-4"
       inkscape:connector-curvature="0" />
    <path
       sodipodi:type="arc"
       style="fill:#ffffff;fill-opacity:1;stroke:none"
       id="path3876-1-0-8"
       sodipodi:cx="-265.71747"
       sodipodi:cy="1154.2728"
       sodipodi:rx="88.940773"
       sodipodi:ry="88.940773"
       d="m -176.7767,1154.2728 c 0,49.1207 -39.82014,88.9408 -88.94077,88.9408 -49.12063,0 -88.94077,-39.8201 -88.94077,-88.9408 0,-49.1206 39.82014,-88.9407 88.94077,-88.9407 49.12063,0 88.94077,39.8201 88.94077,88.9407 z"
       transform="matrix(0.35978999,0,0,0.35978999,1485.6024,190.54092)" />
    <path
       sodipodi:type="arc"
       style="fill:#ffffff;fill-opacity:1;stroke:none"
       id="path3876-7-8"
       sodipodi:cx="-265.71747"
       sodipodi:cy="1154.2728"
       sodipodi:rx="88.940773"
       sodipodi:ry="88.940773"
       d="m -176.7767,1154.2728 c 0,49.1207 -39.82014,88.9408 -88.94077,88.9408 -49.12063,0 -88.94077,-39.8201 -88.94077,-88.9408 0,-49.1206 39.82014,-88.9407 88.94077,-88.9407 49.12063,0 88.94077,39.8201 88.94077,88.9407 z"
       transform="matrix(0.35978999,0,0,0.35978999,351.60249,-130.93361)" />
    <path
       style="fill:none;stroke:#ffffff;stroke-width:20;stroke-linecap:butt;stroke-linejoin:miter;stroke-miterlimit:4;stroke-opacity:1;stroke-dasharray:none"
       d="M 146.00003,93.836687 256,284.3622"
       id="path3047-5-1-7-1-4-2"
       inkscape:connector-curvature="0" />
    <path
       sodipodi:type="arc"
       style="fill:#ffffff;fill-opacity:1;stroke:none"
       id="path3876-1-0-4"
       sodipodi:cx="-265.71747"
       sodipodi:cy="1154.2728"
       sodipodi:rx="88.940773"
       sodipodi:ry="88.940773"
       d="m -176.7767,1154.2728 c 0,49.1207 -39.82014,88.9408 -88.94077,88.9408 -49.12063,0 -88.94077,-39.8201 -88.94077,-88.9408 0,-49.1206 39.82014,-88.9407 88.94077,-88.9407 49.12063,0 88.94077,39.8201 88.94077,88.9407 z"
       transform="matrix(0.35978999,0,0,0.35978999,241.60252,-321.45912)" />
    <path
       sodipodi:type="arc"
       style="fill:#ffffff;fill-opacity:1;stroke:none"
       id="path3876-7-5"
       sodipodi:cx="-265.71747"
       sodipodi:cy="1154.2728"
       sodipodi:rx="88.940773"
       sodipodi:ry="88.940773"
       d="m -176.7767,1154.2728 c 0,49.1207 -39.82014,88.9408 -88.94077,88.9408 -49.12063,0 -88.94077,-39.8201 -88.94077,-88.9408 0,-49.1206 39.82014,-88.9407 88.94077,-88.9407 49.12063,0 88.94077,39.8201 88.94077,88.9407 z"
       transform="matrix(-0.35978999,0,0,-0.35978999,672.39751,699.65801)" />
    <path
       style="fill:none;stroke:#ffffff;stroke-width:20;stroke-linecap:butt;stroke-linejoin:miter;stroke-miterlimit:4;stroke-opacity:1;stroke-dasharray:none"
       d="M 548.00008,284.36219 768,284.3622"
       id="path3047-5-1-7-1-4-5"
       inkscape:connector-curvature="0" />
    <path
       sodipodi:type="arc"
       style="fill:#ffffff;fill-opacity:1;stroke:none"
       id="path3876-1-0-1"
       sodipodi:cx="-265.71747"
       sodipodi:cy="1154.2728"
       sodipodi:rx="88.940773"
       sodipodi:ry="88.940773"
       d="m -176.7767,1154.2728 c 0,49.1207 -39.82014,88.9408 -88.94077,88.9408 -49.12063,0 -88.94077,-39.8201 -88.94077,-88.9408 0,-49.1206 39.82014,-88.9407 88.94077,-88.9407 49.12063,0 88.94077,39.8201 88.94077,88.9407 z"
       transform="matrix(-0.35978999,0,0,-0.35978999,452.39759,699.658)" />
    <path
       style="fill:none;stroke:#ffffff;stroke-width:20;stroke-linecap:butt;stroke-linejoin:miter;stroke-miterlimit:4;stroke-opacity:1;stroke-dasharray:none"
       d="M 1280,284.3622 1170.0001,474.8877"
       id="path3047-5-1-7-1-4-1"
       inkscape:connector-curvature="0" />
    <path
       style="fill:none;stroke:#ffffff;stroke-width:20;stroke-linecap:butt;stroke-linejoin:miter;stroke-miterlimit:4;stroke-opacity:1;stroke-dasharray:none"
       d="M 256,-227.6378 365.99996,-37.112276"
       id="path3047-5-1-7-1-4-7"
       inkscape:connector-curvature="0" />
    <path
       sodipodi:type="arc"
       style="fill:#ffffff;fill-opacity:1;stroke:none"
       id="path3876-1-0-8-0"
       sodipodi:cx="-265.71747"
       sodipodi:cy="1154.2728"
       sodipodi:rx="88.940773"
       sodipodi:ry="88.940773"
       d="m -176.7767,1154.2728 c 0,49.1207 -39.82014,88.9408 -88.94077,88.9408 -49.12063,0 -88.94077,-39.8201 -88.94077,-88.9408 0,-49.1206 39.82014,-88.9407 88.94077,-88.9407 49.12063,0 88.94077,39.8201 88.94077,88.9407 z"
       transform="matrix(0.35978999,0,0,0.35978999,1265.6026,59.591891)" />
    <path
       sodipodi:type="arc"
       style="fill:#ffffff;fill-opacity:1;stroke:none"
       id="path3876-1-0-8-9"
       sodipodi:cx="-265.71747"
       sodipodi:cy="1154.2728"
       sodipodi:rx="88.940773"
       sodipodi:ry="88.940773"
       d="m -176.7767,1154.2728 c 0,49.1207 -39.82014,88.9408 -88.94077,88.9408 -49.12063,0 -88.94077,-39.8201 -88.94077,-88.9408 0,-49.1206 39.82014,-88.9407 88.94077,-88.9407 49.12063,0 88.94077,39.8201 88.94077,88.9407 z"
       transform="matrix(0.35978999,0,0,0.35978999,1375.6025,-130.93361)" />
    <path
       sodipodi:type="arc"
       style="fill:#ffffff;fill-opacity:1;stroke:none"
       id="path3876-1-0-8-00"
       sodipodi:cx="-265.71747"
       sodipodi:cy="1154.2728"
       sodipodi:rx="88.940773"
       sodipodi:ry="88.940773"
       d="m -176.7767,1154.2728 c 0,49.1207 -39.82014,88.9408 -88.94077,88.9408 -49.12063,0 -88.94077,-39.8201 -88.94077,-88.9408 0,-49.1206 39.82014,-88.9407 88.94077,-88.9407 49.12063,0 88.94077,39.8201 88.94077,88.9407 z"
       transform="matrix(0.35978999,0,0,0.35978999,461.60245,-452.40808)" />
    <path
       sodipodi:type="arc"
       style="fill:#ffffff;fill-opacity:1;stroke:none"
       id="path3876-1-0-8-6"
       sodipodi:cx="-265.71747"
       sodipodi:cy="1154.2728"
       sodipodi:rx="88.940773"
       sodipodi:ry="88.940773"
       d="m -176.7767,1154.2728 c 0,49.1207 -39.82014,88.9408 -88.94077,88.9408 -49.12063,0 -88.94077,-39.8201 -88.94077,-88.9408 0,-49.1206 39.82014,-88.9407 88.94077,-88.9407 49.12063,0 88.94077,39.8201 88.94077,88.9407 z"
       transform="matrix(0.35978999,0,0,0.35978999,351.60249,-642.93361)" />
    <path
       style="fill:#ffffff;stroke:none"
       d="M 768 194 C 733.75834 194 706 221.75836 706 256 C 706 290.2417 733.75834 318 768 318 C 802.24165 318 830 290.2417 830 256 C 830 221.75836 802.24165 194 768 194 z M 768 214 C 791.19596 214 810 232.80405 810 256 C 810 279.19598 791.19596 298 768 298 C 744.80404 298 726 279.19598 726 256 C 726 232.80405 744.80404 214 768 214 z "
       transform="translate(0,-483.6378)"
       id="path3876-1-0-8-6-7" />
  </g>
</svg>
