<?xml version="1.0" encoding="UTF-8" standalone="no"?>
<!-- Created with Inkscape (http://www.inkscape.org/) -->

<svg
   xmlns:dc="http://purl.org/dc/elements/1.1/"
   xmlns:cc="http://creativecommons.org/ns#"
   xmlns:rdf="http://www.w3.org/1999/02/22-rdf-syntax-ns#"
   xmlns:svg="http://www.w3.org/2000/svg"
   xmlns="http://www.w3.org/2000/svg"
   xmlns:sodipodi="http://sodipodi.sourceforge.net/DTD/sodipodi-0.dtd"
   xmlns:inkscape="http://www.inkscape.org/namespaces/inkscape"
   width="480"
   height="480"
   id="svg2"
   version="1.1"
   inkscape:version="0.48.4 r9939"
   sodipodi:docname="icon.svg"
   inkscape:export-filename="C:\Users\Robert\Documents\amoebotsim\res\icon\icon2.png"
   inkscape:export-xdpi="360"
   inkscape:export-ydpi="360">
  <defs
     id="defs4" />
  <sodipodi:namedview
     id="base"
     pagecolor="#ffffff"
     bordercolor="#666666"
     borderopacity="1.0"
     inkscape:pageopacity="0"
     inkscape:pageshadow="2"
     inkscape:zoom="1"
     inkscape:cx="231.95214"
     inkscape:cy="183.67166"
     inkscape:document-units="px"
     inkscape:current-layer="layer1"
     showgrid="false"
     inkscape:object-nodes="true"
     units="px"
     inkscape:window-width="1680"
     inkscape:window-height="987"
     inkscape:window-x="-8"
     inkscape:window-y="-8"
     inkscape:window-maximized="1"
     inkscape:snap-object-midpoints="true"
     fit-margin-top="0"
     fit-margin-left="0"
     fit-margin-right="0"
     fit-margin-bottom="0" />
  <metadata
     id="metadata7">
    <rdf:RDF>
      <cc:Work
         rdf:about="">
        <dc:format>image/svg+xml</dc:format>
        <dc:type
           rdf:resource="http://purl.org/dc/dcmitype/StillImage" />
        <dc:title />
      </cc:Work>
    </rdf:RDF>
  </metadata>
  <g
     inkscape:label="icon"
     inkscape:groupmode="layer"
     id="layer1"
     transform="translate(-49,-552.59375)">
    <path
       style="fill:#cccccc;stroke:#000000;stroke-width:18;stroke-linecap:butt;stroke-linejoin:miter;stroke-miterlimit:4;stroke-opacity:1;stroke-dasharray:none"
       d="M 289,1021.0198 91.000036,906.80685 91,678.38071 288.99996,564.16774 l 198,114.21297 4e-5,228.42614 -198,114.21295"
       id="path3872"
       inkscape:connector-curvature="0" />
    <path
       sodipodi:type="arc"
       style="fill:#000000;fill-opacity:1;stroke:none"
       id="path3876-1-0-4"
       sodipodi:cx="-265.71747"
       sodipodi:cy="1154.2728"
       sodipodi:rx="88.940773"
       sodipodi:ry="88.940773"
       d="m -176.7767,1154.2728 a 88.940773,88.940773 0 1 1 -177.88154,0 88.940773,88.940773 0 1 1 177.88154,0 z"
       transform="matrix(0.80952748,0,0,0.80952748,504.10558,-141.82182)" />
    <path
       style="fill:#ff0000;fill-opacity:0.74901961;stroke:none"
       d="m 289,653.09375 c -77.04374,0 -139.5,62.45631 -139.5,139.5 0,77.04383 62.45626,139.5 139.5,139.5 77.04371,0 139.5,-62.45617 139.5,-139.5 0,-77.04369 -62.45629,-139.5 -139.5,-139.5 z m 0,45 c 52.19091,0 94.5,42.30911 94.5,94.5 0,52.19096 -42.30909,94.5 -94.5,94.5 -52.19091,0 -94.5,-42.30904 -94.5,-94.5 0,-52.19089 42.30909,-94.5 94.5,-94.5 z"
       id="path3876-1-0-8-6-7"
       inkscape:connector-curvature="0" />
    <path
       style="fill:none;stroke:#000000;stroke-width:45;stroke-linecap:butt;stroke-linejoin:miter;stroke-miterlimit:4;stroke-opacity:1;stroke-dasharray:none"
       d="M 288.99999,792.59375 190.00014,964.06687"
       id="path3047-5-1-7-1-4-4"
       inkscape:connector-curvature="0" />
  </g>
</svg>
